<svg xmlns="http://www.w3.org/2000/svg" width="300" height="80" viewBox="0 0 300 80">
  <!-- Network Node Icon -->
  <g transform="translate(10, 10) scale(0.8)">
    <circle cx="40" cy="40" r="15" fill="currentColor"/>
    <circle cx="10" cy="10" r="5" fill="currentColor"/>
    <circle cx="70" cy="10" r="5" fill="currentColor"/>
    <circle cx="10" cy="70" r="5" fill="currentColor"/>
    <circle cx="70" cy="70" r="5" fill="currentColor"/>
    <circle cx="40" cy="10" r="5" fill="currentColor"/>
    <circle cx="70" cy="40" r="5" fill="currentColor"/>
    <circle cx="40" cy="70" r="5" fill="currentColor"/>
    <circle cx="10" cy="40" r="5" fill="currentColor"/>
    <line x1="40" y1="10" x2="40" y2="25" stroke="currentColor" stroke-width="2"/>
    <line x1="70" y1="40" x2="55" y2="40" stroke="currentColor" stroke-width="2"/>
    <line x1="40" y1="70" x2="40" y2="55" stroke="currentColor" stroke-width="2"/>
    <line x1="10" y1="40" x2="25" y2="40" stroke="currentColor" stroke-width="2"/>
    <line x1="10" y1="10" x2="25" y2="25" stroke="currentColor" stroke-width="2"/>
    <line x1="70" y1="10" x2="55" y2="25" stroke="currentColor" stroke-width="2"/>
    <line x1="70" y1="70" x2="55" y2="55" stroke="currentColor" stroke-width="2"/>
    <line x1="10" y1="70" x2="25" y2="55" stroke="currentColor" stroke-width="2"/>
  </g>
  
  <!-- DMTools Text -->
  <text x="100" y="60" font-family="Arial, sans-serif" font-size="48" font-weight="bold" fill="currentColor">DM Tools</text>
</svg> 